{
  "accessors": [
    {
      "bufferView": 2,
      "componentType": 5126,
      "count": 20,
      "max": [
        0.25,
        0.03040335699915886,
        0.25
      ],
      "min": [
        -0.25,
        -2.60770320892334e-08,
        -0.25
      ],
      "type": "VEC3"
    },
    {
      "bufferView": 2,
      "byteOffset": 240,
      "componentType": 5126,
      "count": 20,
      "max": [
        1.0,
        0.0,
        1.0
      ],
      "min": [
        -1.0,
        -1.0,
        -1.0
      ],
      "type": "VEC3"
    },
    {
      "bufferView": 1,
      "componentType": 5126,
      "count": 20,
      "max": [
        0.9999260306358337,
        1.0042879581451416
      ],
      "min": [
        -0.003941893577575684,
        -0.004909783601760864
      ],
      "type": "VEC2"
    },
    {
      "bufferView": 1,
      "byteOffset": 160,
      "componentType": 5126,
      "count": 20,
      "max": [
        0.9999260306358337,
        1.0042879581451416
      ],
      "min": [
        -0.003941893577575684,
        -0.004909783601760864
      ],
      "type": "VEC2"
    },
    {
      "bufferView": 0,
      "componentType": 5125,
      "count": 30,
      "type": "SCALAR"
    }
  ],
  "asset": {
    "extras": {
      "author": "alfhana (https://sketchfab.com/alfhana)",
      "license": "CC-BY-4.0 (http://creativecommons.org/licenses/by/4.0/)",
      "source": "https://sketchfab.com/3d-models/painting-canvas-f7a16f7cc31545fbbe2dbe32d6d70e9e",
      "title": "painting canvas"
    },
    "generator": "Sketchfab-12.89.0",
    "version": "2.0"
  },
  "bufferViews": [
    {
      "buffer": 0,
      "byteLength": 120,
      "name": "floatBufferViews",
      "target": 34963
    },
    {
      "buffer": 0,
      "byteLength": 320,
      "byteOffset": 120,
      "byteStride": 8,
      "name": "floatBufferViews",
      "target": 34962
    },
    {
      "buffer": 0,
      "byteLength": 480,
      "byteOffset": 440,
      "byteStride": 12,
      "name": "floatBufferViews",
      "target": 34962
    }
  ],
  "buffers": [
    {
      "byteLength": 920,
      "uri": "scene.bin"
    }
  ],
  "images": [
    {
      "uri": "textures/Abstract_Painting_baseColor.png"
    }
  ],
  "materials": [
    {
      "doubleSided": true,
      "name": "Abstract_Painting",
      "pbrMetallicRoughness": {
        "baseColorTexture": {
          "index": 0
        },
        "metallicFactor": 0.0,
        "roughnessFactor": 0.7516182906462191
      }
    }
  ],
  "meshes": [
    {
      "name": "Object_0",
      "primitives": [
        {
          "attributes": {
            "NORMAL": 1,
            "POSITION": 0,
            "TEXCOORD_0": 2,
            "TEXCOORD_1": 3
          },
          "indices": 4,
          "material": 0,
          "mode": 4
        }
      ]
    }
  ],
  "nodes": [
    {
      "children": [
        1
      ],
      "matrix": [
        1.5689325332641602,
        -2.523035900636476e-16,
        -4.346046482228514e-32,
        0.0,
        -2.801132548842484e-32,
        9.60694144390214e-17,
        -1.5689325332641602,
        0.0,
        2.523035900636476e-16,
        1.5689325332641602,
        9.60694144390214e-17,
        0.0,
        0.0,
        0.0,
        0.0,
        1.0
      ],
      "name": "Sketchfab_model"
    },
    {
      "children": [
        2
      ],
      "name": "root"
    },
    {
      "children": [
        3
      ],
      "matrix": [
        1.0,
        0.0,
        0.0,
        0.0,
        0.0,
        2.220446049250313e-16,
        1.0,
        0.0,
        0.0,
        -1.0,
        2.220446049250313e-16,
        0.0,
        0.0,
        0.0,
        0.0,
        1.0
      ],
      "name": "GLTF_SceneRootNode"
    },
    {
      "children": [
        4
      ],
      "matrix": [
        0.13398611342918132,
        -0.9909832094481433,
        7.091238360401597e-11,
        0.0,
        0.9906436242277262,
        0.13394019973299398,
        0.02617694925771919,
        0.0,
        -0.025940917198473776,
        -0.003507347622225789,
        0.9996573249506847,
        0.0,
        0.0,
        0.0,
        0.0,
        1.0
      ],
      "name": "Abstract Painting_0"
    },
    {
      "mesh": 0,
      "name": "Object_4"
    }
  ],
  "samplers": [
    {
      "magFilter": 9729,
      "minFilter": 9987,
      "wrapS": 10497,
      "wrapT": 10497
    }
  ],
  "scene": 0,
  "scenes": [
    {
      "name": "Sketchfab_Scene",
      "nodes": [
        0
      ]
    }
  ],
  "textures": [
    {
      "sampler": 0,
      "source": 0
    }
  ]
}
